<?xml version="1.0" encoding="UTF-8"?>
<svg id="Layer_1" data-name="Layer 1" xmlns="http://www.w3.org/2000/svg" viewBox="0 0 275.51 299.27">
  <defs>
    <style>
      .cls-1, .cls-2 {
        stroke: #000;
        stroke-miterlimit: 10;
      }

      .cls-2 {
        stroke-width: .25px;
      }
    </style>
  </defs>
  <path class="cls-1" d="m158.31,198.67c-14.69.89-29.37.62-44.04-.04-2.85-.13-5.71-.27-8.54-.59-1.61-.18-2.16.22-2.14,1.9.08,6.53.1,13.06,0,19.59-.03,1.91.62,2.31,2.41,2.23,12.72-.6,25.4-1.59,38.06-2.89,20.12-2.08,40.11-5.08,59.95-8.99,23.11-4.56,45.98-10.1,68.49-17.09.79-.24,1.35-.33,1.98.3.79.79.56,1.65.32,2.51-1.83,6.52-4.04,12.91-6.87,19.07-10.84,23.66-27.59,42.57-47.41,59-4.39,3.64-9.15,6.86-13.51,10.53-7.24,6.1-16.1,8.01-24.94,9.88-15.21,3.21-30.67,4.22-46.19,4.57-19.11.43-38.18-.3-57.23-1.6-13.67-.93-27.3-2.38-40.95-3.55-6.92-.6-11.57-4.83-16.38-8.72-12.23-9.91-18.34-23.22-20.2-38.65-1.06-8.73-.67-17.42.47-26.11.19-1.47.38-1.96,2.23-1.67,5.39.83,10.84,1.34,16.29,1.75,8.62.65,17.25,1.4,25.89,1.59,16.53.35,33.05,1.36,49.59.56,2.23-.11,3.1-.49,3.02-2.96-.2-6.28-.07-12.57-.07-18.85,0-1.02.17-1.93-1.51-1.52-11.46,2.75-23.13,2.61-34.8,2.3-11.83-.32-23.6-1.56-35.39-2.42-2.92-.21-3.67-1.09-4.06-3.77-2.54-17.3-4.39-34.64-3.91-52.15.58-21.22,3.81-41.89,13.44-61.14,12.16-24.32,31.87-39.77,57.23-48.54,2.23-.77,4.48-1.54,6.77-2.09,1.72-.41,2.31-1.18,2.29-3-.1-8.32-.06-16.65-.02-24.98,0-.8-.53-2.11.68-2.27,1.42-.19,3.23-.86,4.28.55.58.77,1.2,1.03,1.92,1.25,9.28,2.82,18.57,5.61,27.86,8.4.59.18,1.42.04,1.47.96.04.93-.79.86-1.37,1.07-8.57,3.14-17.13,6.33-25.73,9.39-1.8.64-2.08,1.1-.92,2.77,6.72,9.73,13.38,19.51,19.96,29.34,11.46,17.12,22.53,34.49,33.27,52.07,12.82,20.98,24.9,42.37,35.83,64.4,4.1,8.25,7.85,16.67,11.6,25.09.85,1.91-.35,1.69-1.39,1.73-6.93.29-13.85.69-20.79.79-8.97.14-17.95.03-26.92.03Zm109.09,1.58c-64.21,20.05-129.5,28.84-196.52,28.22,9.11,11.16,9.56,22.44,1.98,34.14.5.05.73.1.96.1,49.69.06,99.38.12,149.06.21,1.17,0,1.98-.4,2.8-1.16,13.38-12.39,24.93-26.23,33.55-42.38,3.18-5.96,5.98-12.09,8.16-19.13Zm-194.29-.43c5.07-.1,13.96-.11,22.69-2.15,3.14-.73,3.17-.77,1.5-3.53-7.61-12.6-12.99-26.08-15.95-40.5-.4-1.97-1.19-2.34-3.05-1.98-18.47,3.57-37.03,4.38-55.68,1.49-1.98-.31-2.4.4-2.26,2.2.36,4.63.52,9.28.88,13.91.68,8.61,1.82,17.17,3.12,25.7.22,1.41.71,2.05,2.25,2.2,14.21,1.33,28.41,2.59,46.51,2.66Zm25.33-7.65V40.76c-.45.81-.66,1.12-.8,1.47-8.16,20.17-14.42,40.84-16.87,62.56-2.44,21.68-.91,42.96,6.19,63.69,2.85,8.32,6.51,16.29,11.48,23.69Zm.1-157.39c.02-2.84,0-2.87-2.65-2.08-10.83,3.23-21.13,7.65-30.6,13.89-12.99,8.57-23.1,19.75-30.47,33.45-.73,1.36-1.08,2.07,1.07,2.14,3.33.11,6.66.49,9.97.92,11.71,1.54,23.11,4.08,33.22,10.61,1.51.98,1.65.31,1.9-1.03,3.38-18.77,9.22-36.78,16.64-54.31.51-1.21,1.09-2.38.91-3.6Zm-32.96,189.41c1.6,1.52,3.13,2.71,5.46,2.75,8.16.13,16.31-.07,24.47-.24,25.72-.54,51.29-2.73,76.75-6.41,27.06-3.91,53.74-9.56,80.02-17.13,5.25-1.51,10.47-3.11,15.71-4.67.62-.18,1.25-.57,1.83-.02.14.14.1.64-.04.86-1.72,2.8-2.4,6.03-3.64,9.02-9.29,22.5-24.17,40.86-42.1,56.97-5.52,4.96-11.34,9.56-17.24,14.07-4.04,3.09-8.09,5.99-13.05,7.54-11.36,3.56-23.04,5.24-34.83,6.2-18.65,1.52-37.33,1.29-56.01.45-19.08-.85-38.1-2.45-57.08-4.46-3.38-.36-7.03.1-10.08-1.37-8.74-4.23-16.04-10.3-21.4-18.5-8.66-13.26-9.95-27.99-8.59-43.26.2-2.27,1.19-2.75,3.35-2.56,9.42.84,18.87,1.47,28.3,2.25,2.32.19,3.84-1.02,5.76-2.5-12.96-.65-25.48-1.68-37.96-3.04-1.78-.19-2.18.36-2.36,1.94-.87,7.73-1.16,15.45-.3,23.19,2.3,20.56,12.35,35.9,30.65,45.73.65.35,1.29.63,2.06.7,14.46,1.27,28.9,2.78,43.38,3.8,23.86,1.68,47.76,2.51,71.66,1.05,13.85-.85,27.63-2.37,40.99-6.34,3.41-1.01,6.95-1.78,9.97-3.88,12.03-8.33,23.36-17.49,33.7-27.88,17.3-17.39,30.72-37.17,37.68-60.94.29-.97.78-1.94.56-3.26-67.78,20.37-136.88,30.68-207.62,29.93Zm-37.53,56.41c-.09.21-.19.43-.28.64,3.38,1.99,6.27,5.07,10.38,5.53,17.43,1.95,34.89,3.55,52.4,4.6,25.68,1.54,51.36,2.27,77-.66,9.98-1.14,19.83-2.94,29.28-6.53,1.44-.55,2.71-1.29,4.21-2.84-58.03-.25-115.5-.5-172.98-.75Zm119.65-114.09c-.65,0-1.31,0-1.96,0-13.22-.11-26.44-.18-39.65-.36-1.91-.03-2.64.49-2.5,2.45.15,2.11.1,4.24.01,6.36-.06,1.49.3,2.11,1.99,2.21,23.31,1.35,46.63,1.71,69.96.75,6.44-.27,12.87-.74,19.3-1.06,1.69-.08,1.9-.64,1.13-2.06-1.16-2.15-2.37-4.3-3.23-6.58-.88-2.33-2.35-2.96-4.69-2.8-13.44.92-26.9.98-40.36,1.08ZM16.78,269.68c1.93,4.08,4.55,5.96,8.87,5.4,3.13-.41,6.35-.17,9.53-.19,21.21-.14,42.42,0,63.63-.15,36.14-.25,72.28-.19,108.43-.07,3.79.01,5.81-2.03,8.74-4.68-7.47,0-14.21.02-20.95,0-22.92-.1-45.85.1-68.77-.15-19.66-.21-39.32-.02-58.99-.06-2.39,0-4.66.25-6.94,1.05-2.78.98-5.81,1.66-8.66.89-10.64-2.87-21.48-1.87-32.27-2.03-.79-.01-1.58,0-2.62,0Zm187.69-76.41c-1.79-3.98-3.2-7-4.5-10.06-.51-1.19-1.3-1.21-2.36-1.07-8.66,1.16-17.38,1.51-26.1,1.7-20.4.45-40.78-.1-61.16-.83-2.15-.08-4.99-1.29-6.31.22-1.34,1.53-.22,4.38-.44,6.64-.14,1.5.46,2,1.91,2.06,3.99.18,7.97.52,11.96.7,19.49.87,38.99.71,58.49.65,9.29-.03,18.57,0,28.51,0Zm-60.45-31.98c0-.24,0-.47,0-.71,9.53,0,19.06.03,28.6-.02,4.56-.02,9.12-.23,13.69-.31,1.63-.03,2.32-.39,1.28-2.11-1.22-2.02-2.29-4.13-3.32-6.25-.58-1.2-1.32-1.6-2.68-1.52-12.45.68-24.92.92-37.39.96-12.71.03-25.43.03-38.12-.65-1.88-.1-2.68.38-2.49,2.38.16,1.7.19,3.44,0,5.13-.26,2.4.44,3.2,3.03,3.17,12.47-.15,24.93-.07,37.4-.07Zm-4.46-26.33c-11.25,0-22.51.03-33.76-.03-1.68,0-2.34.44-2.22,2.19.14,2.03.09,4.08.02,6.11-.05,1.42.15,2.28,1.93,2.26,2.93-.03,5.86.19,8.79.32,21.36.93,42.71.38,64.06-.55,2.06-.09,1.9-.77,1.07-2.16-1.21-2.03-2.43-4.07-3.43-6.21-.74-1.6-1.79-1.97-3.44-1.96-11.01.06-22.02.03-33.03.03Zm-102.79,92.24c-.8-.06-1.43-.1-2.06-.15-7.31-.59-14.61-1.28-21.92-1.73-6.14-.38-5.34-1.99-5.81,5-.03.41-.05.81-.07,1.22-.47,9.95.59,19.67,4.4,28.98.61,1.49,1.37,2.1,3.05,2.07,5.79-.11,11.57-.06,17.36-.01,1.59.01,2.12-.14,1.03-1.8-4-6.08-5.15-12.74-3.65-19.86.66-3.12,2.14-5.92,3.86-9.01-4.96.56-9.5,1.5-14.11.85,3.22-.4,6.44-.76,9.67-.81,3.56-.05,6.47-1.04,8.24-4.74Zm98.31-107.35c-8.16,0-16.31-.05-24.47.03-2.24.02-5.14-1.05-6.56.5-1.39,1.51-.24,4.38-.46,6.64-.16,1.65.39,2.26,2.14,2.29,10.27.19,20.54.55,30.81.73,10.93.19,21.85-.23,32.78-.54,2.23-.06,2.03-.85,1.13-2.3-1.12-1.8-2.25-3.61-3.2-5.5-.72-1.44-1.68-1.9-3.28-1.88-9.63.08-19.25.04-28.88.04Zm-68.04,148.28c.63.03,1.03.07,1.42.07,23.99.09,47.98.19,71.97.26,24.81.07,49.61.05,74.42.25,3.45.03,5.22-1.83,7.73-4.4-8.2,0-15.75,0-23.3,0-41.13-.02-82.26,0-123.39-.15-3.67-.01-6.45.92-8.85,3.98Zm66.27-153.17c9.3,0,18.6-.03,27.9.03,1.53.01,2.01-.13,1.05-1.63-1.58-2.47-3.11-4.98-4.53-7.55-.72-1.3-1.58-1.76-3.09-1.74-8.32.1-16.64.05-24.96.11-7.99.06-15.98.24-23.97.28-1.56,0-2.21.43-2.12,2.07.12,2.03.14,4.09,0,6.11-.13,1.82.46,2.36,2.32,2.34,9.14-.1,18.27-.04,27.41-.04ZM41.75,246.05c0,7.33,5.39,12.96,12.42,12.95,7.11,0,12.57-5.55,12.6-12.79.02-7.41-5.46-13.15-12.56-13.14-6.98.01-12.45,5.72-12.46,12.98Zm111.92-146.79c-2.11-3.38-3.92-6.18-5.61-9.04-.71-1.21-1.61-1.62-2.98-1.6-5.62.11-11.24.15-16.86.2-7.5.07-14.99.16-22.49.15-1.56,0-2.21.4-2.13,2.04.11,2.19.11,4.4,0,6.6-.09,1.64.55,2.05,2.12,2.03,11.9-.17,23.79-.27,35.69-.38,3.89-.03,7.78,0,12.26,0Zm-53.57,29.53c0,30.19,0,60.37,0,90.56,0,.57-.01,1.14.03,1.71.04.59.42.84.99.84.61,0,.88-.33.88-.91,0-.57,0-1.14,0-1.71,0-37.08,0-74.16,0-111.24,0-22.19,0-44.38,0-66.58,0-12.16,0-24.31,0-36.47,0-1.04.16-2.55-1.13-2.56-1.42,0-.73,1.55-.73,2.36-.06,11.47-.04,22.94-.04,34.41,0,29.86,0,59.72,0,89.58Zm-66.71-42.18c-1.31-.41-2.01.19-2.45,1.5-.59,1.77-1.28,3.52-2.05,5.23-.6,1.34-.14,1.72,1.17,1.79,3.42.18,6.83.35,10.24.67,11.79,1.1,23.37,3.24,34.48,7.51,4.43,1.7,4.38,1.74,5.04-3.01.16-1.13-.01-1.72-1.17-2.24-14.4-6.48-29.41-10.47-45.27-11.46Zm90.24-3.18h0c5.94.01,11.89-.02,17.83.03,1.59.01,2.19-.26,1.13-1.84-1.59-2.36-3.11-4.77-4.63-7.18-.46-.74-.97-1.21-1.93-1.19-10.26.15-20.51.29-30.77.38-1.3.01-1.7.54-1.66,1.76.06,1.95.11,3.92-.02,5.86-.12,1.72.5,2.24,2.21,2.21,5.94-.09,11.89-.03,17.83-.03Zm10.52-14.85c-2.41-3.62-4.5-6.78-6.6-9.93-.38-.57-.99-.49-1.55-.49-6.93,0-13.85,0-20.78,0-.61,0-1.49-.17-1.47.79.02,1,.94.67,1.52.68,3.01.09,6.03-.33,9.03.2-2.51.24-5.04.59-7.53.45-2.6-.14-3.31.77-3.21,3.31.19,4.99.05,4.98,4.9,4.98,8.36,0,16.73,0,25.7,0Zm-3.3-56.24c-.4-.37-.54-.61-.73-.67-8.33-2.52-16.67-5.01-24.99-7.56-1.37-.42-1.52.17-1.51,1.27.02,5.05.04,10.1-.02,15.15-.02,1.45.52,1.69,1.76,1.21,2.35-.9,4.72-1.76,7.09-2.63,6.08-2.24,12.15-4.47,18.41-6.77ZM31.24,238.94c2.96,0,5.48-.03,7.99.02.59.01,1.54-.01,1.47.85-.07.93-1.01.58-1.58.55-2.27-.12-4.55-.23-6.81-.5-1.44-.17-1.58.7-1.77,1.71-.25,1.31.62,1.26,1.46,1.25,2.36-.04,4.72-.13,7.08-.13,1.08,0,1.56-.42,1.88-1.45.98-3.14,2.75-6.08,5.72-7.26,3.7-1.47,3.77-4.03,3.53-7.09-.03-.32-.07-.66-.03-.97.29-2.38-.93-2.81-2.88-2.22-7.68,2.29-12.9,7.2-16.05,15.25Zm7.76,10.2c-2.43.3-5.09.65-7.75.97-1.26.15-.81,1.07-.67,1.67,1.75,7.52,6.09,13,13.01,16.45.98.49,1.55.53,1.9-.75.65-2.35,1.41-4.67,2.25-6.96.35-.96.21-1.42-.66-1.96-3.19-1.94-5.32-4.74-6.31-8.36-.22-.82-.58-1.34-1.76-1.05ZM123.78,52.9c-2.25-3.34-4.46-6.63-6.68-9.9-.52-.77-1.37-.81-2.18-.83-3.17-.07-6.35-.1-9.52-.2-1.18-.04-1.82.27-1.79,1.61.06,2.6.04,5.21.02,7.81,0,.99.35,1.51,1.41,1.51,6.15-.02,12.31,0,18.74,0ZM58.11,231.87c.18-1.94,1.25-2.92,1.93-4.04,2.47-4.1,1.68-3.37-1.83-4.38-1.62-.47-2-.02-2.12,1.44-.15,1.7-.3,3.42-.73,5.06-.32,1.2-.06,1.57,1.09,1.77,5.44.96,9.02,4.17,11.02,9.26.22.57.27,1.18,1.18,1.3,2.54.31,5.05.77,7.78,1.21-1.23-7.4-4.73-13.09-10.91-17.07-2.7-1.73-2.67-1.68-4.1,1.07-.77,1.48-1.23,3.25-3.3,4.38Zm9.3,19.68c-1.65,3.72-4.28,6.33-7.87,8.1-1.46.72-3.84-.13-4.35,1.78-.42,1.54.2,3.37.38,5.07.07.65.34,1.29.3,1.92-.1,1.61.54,1.86,2.01,1.52,6.72-1.52,11.83-5.22,15.38-11.08,1.75-2.88,1.7-2.91-1.13-4.53-1.54-.89-3.07-1.8-4.74-2.78Zm-28.12,16.63c.08-.18.17-.36.25-.54-1.95-.85-2.85-3.42-5.07-3.48-6.68-.2-13.36-.08-20.05-.08-.51,0-1.23.13-.88.73.8,1.36.91,3.4,3.27,3.39,7.49-.04,14.98-.02,22.48-.02ZM104.02,36.56v.42c2.56.15,5.12.3,7.68.43.75.04,1.47-.12.84-1.06-2.74-4.09-5.54-8.13-8.32-12.2-.57,3.63-.59,7.08-.56,10.54.01,1.16.99,1.1,1.78,1.21,1.28.18,2.63-.28,3.85.66h-5.27ZM35.12,244.19s0,.03,0,.04c-.65,0-1.31.01-1.96,0-3.39-.07-3.37-.03-3.15,3.51.08,1.31.59,1.45,1.68,1.24,2.24-.44,4.47-1.01,6.73-1.15,2.01-.12,1.84-1.31,1.8-2.6-.05-1.75-1.38-.91-2.18-1.01-.96-.12-1.95-.03-2.93-.03Zm40.94,7.58c.27-.9-.16-1.44-1.07-1.77-1.6-.57-3.16-1.29-4.78-1.76-.65-.19-1.66-.98-2.09.6-.33,1.22-.34,1.91,1,2.43,1.43.55,2.75,1.38,4.11,2.11,2.25,1.22,2.55,1.07,2.84-1.62Zm.34-2.76c.29-3.9.3-3.91-3.04-4.72-1.18-.28-2.38-.51-3.58-.72-.61-.1-1.64-.76-1.5.61.1.98-.69,2.63.97,2.8,2.46.26,4.67,1.27,7.14,2.02Zm-25.45,17.61c0,1.08-.14,1.93.03,2.71.34,1.6,1.7.79,2.63.92.46.06,1.39.22,1.19-.69-.58-2.65-.66-5.33-.73-8.01-.02-.92-.66-.95-1.34-1.03-.84-.11-1.14.18-1.21,1.04-.14,1.79-.4,3.56-.57,5.08Zm-.37-4.92c.57-1.1.2-1.54-.57-1.73-.52-.13-1.13-.47-1.37.41-.74,2.67-1.58,5.31-2.18,8.01-.35,1.59,1.25,1.1,2.01,1.44.9.4,1.05-.15,1.14-.94.29-2.5.66-5,.96-7.19Zm.57-37.23c.15,1.95.32,3.9.43,5.85.04.73.14,1.29,1.07,1.23.71-.04,1.19-.16,1.32-1.05.3-1.93.68-3.85,1.15-5.74.29-1.18.26-2.01-1.23-1.77-1.07.17-2.85-.82-2.75,1.48Zm-22.04-124.26c-.02.21-.03.41-.05.62,6.25.44,12.49.87,18.74,1.31-6.2-1.06-12.41-1.89-18.69-1.93Zm26.14,40.98c.02.22.03.43.05.65,6.17-.07,12.29-.89,18.39-1.91-6.15.42-12.29.84-18.44,1.26Zm18.86-6.02h-10.25c3.23,1.02,6.43.87,10.25,0Zm-30.98-30.4c-3.79-.41-7.63-1.14-11.46,0h11.46Zm18.85,39.04c3.1.78,6.21.03,9.34-.57-3.11.19-6.23.38-9.34.57Z"/>
  <path class="cls-2" d="m144.68,243.22c-.06,7.41-5.83,13.43-12.79,13.32-6.82-.11-12.44-6.19-12.43-13.46,0-7.4,5.77-13.49,12.69-13.42,7.01.07,12.58,6.1,12.52,13.56Zm-1.61-.03c.02-6.73-4.74-11.97-10.88-11.99-6.14-.02-11.19,5.3-11.18,11.79.01,6.6,4.89,11.94,10.98,12,6.18.06,11.06-5.13,11.08-11.8Z"/>
  <path class="cls-2" d="m165.3,227.42c7,.05,12.71,6.21,12.58,13.53-.13,7.43-5.86,13.31-12.89,13.25-6.82-.06-12.47-6.18-12.4-13.42.07-7.51,5.69-13.41,12.71-13.36Zm-.09,25.19c6.32-.03,11.06-5.12,11.04-11.85-.01-6.81-4.85-11.8-11.39-11.75-5.91.04-10.68,5.28-10.69,11.73-.01,6.74,4.78,11.9,11.04,11.87Z"/>
  <path d="m256.3,209.05c-10.36,4.09-21.04,7.17-31.71,10.25-.08-.26-.16-.52-.24-.77,10.65-3.16,21.3-6.32,31.95-9.48Z"/>
  <path d="m152.75,255.88c-5.23.72-10.45,1.44-15.68,2.16-.03-.25-.06-.5-.1-.74,5.24-.62,10.48-1.23,15.72-1.85.02.14.04.29.06.43Z"/>
  <path d="m103.37,234.71c4.34-1.9,8.99-2.26,13.64-2.66-4.55.89-9.09,1.77-13.64,2.66Z"/>
  <path d="m190.36,225.29c-2.94.55-5.88,1.1-8.82,1.65,2.6-1.93,5.69-1.76,8.62-2.32.07.22.13.45.2.67Z"/>
  <path d="m94.83,242.26c-2.99,1.08-6.09,1.86-9.37,1.63,3.12-.54,6.25-1.09,9.37-1.63Z"/>
  <path d="m236.51,219.57c2.97-.91,5.94-1.83,8.91-2.74-2.75,1.59-5.66,2.66-8.91,2.74Z"/>
  <path d="m87.59,255c-2.93.71-5.74,1.41-8.66.75,2.89-.25,5.77-.5,8.66-.75Z"/>
  <path d="m207.85,258.98c3.44-.19,6.89-.39,10.33-.58-3.4.94-6.84,1.26-10.33.58Z"/>
  <path d="m219.89,255.11c-2.98.85-6.01,1.55-9.13,1.63,2.95-1.04,6.03-1.39,9.13-1.63Z"/>
  <path d="m92.1,238.73c-2.73.53-5.47,1.07-8.2,1.6-.03-.17-.07-.34-.1-.52,2.73-.52,5.46-1.04,8.19-1.57.04.16.07.32.11.48Z"/>
  <path d="m237.67,224.54c1.92-.78,3.88-1.31,5.96-1.2-1.9.81-3.85,1.39-5.96,1.2Z"/>
  <path d="m92.94,192.67c-5.97,1.15-11.86,1.73-17.79,1.65-.65,0-1.89.27-1.81-.63.12-1.25,1.16-.37,1.88-.37,3.33,0,6.66-.15,9.98-.28,2.58-.1,5.16-.25,7.74-.38Z"/>
  <path d="m23.5,168.78c6.63-.35,13.26-.57,19.9-.85-6.6.84-13.22,1.55-19.9.85Z"/>
  <path d="m78.85,189.37c3.71-.27,7.42-.54,11.12-.8-3.7.87-7.43,1.29-11.12.8Z"/>
  <path d="m38.77,171.77c-3.32.66-6.65,1.26-10.05.54,3.35-.18,6.7-.36,10.05-.54Z"/>
  <path d="m34.19,174.63h-7.64l-.03-.22h7.58l.09.22Z"/>
  <path d="m82.58,65.03c-3.73.62-7.46-.03-11.21-.34l.04-.63c3.72.32,7.45.65,11.17.97Z"/>
  <path d="m41.98,79.08c3.46-.69,6.86-.13,10.26.59-3.42-.2-6.84-.39-10.26-.59Z"/>
  <path d="m83.63,44.21c2.79-.46,5.39.58,8.42.82-1.67.76-2.95.06-4.25-.12-1.4-.19-2.78-.46-4.17-.7Z"/>
  <path d="m93.67,288.13c-6.51.31-13.01.61-19.52.92-.01-.25-.02-.51-.03-.76h19.54c0-.05,0-.11.01-.16Z"/>
  <path d="m129.97,290.84c5.87-.49,11.67-.77,17.49,0h-17.49Z"/>
  <path d="m168.18,168.04c-3.57.68-7.15.71-10.75.57,3.55-.93,7.15-.73,10.75-.57Z"/>
  <path d="m138.37,186.31c-3.58.52-8.08.4-12.57.59-.01-.2-.02-.4-.03-.59h12.6Z"/>
  <path d="m189.33,191.43h9.43c-3.14.47-6.28,1.08-9.46.67,0-.22.02-.45.03-.67Z"/>
  <path d="m136.91,189.21c-2.78.17-5.02.3-7.26.44-.02-.15-.04-.29-.05-.44h7.31Z"/>
  <path d="m108.55,152.66h12.85c0,.1,0,.2,0,.3h-12.81c-.01-.1-.03-.2-.04-.3Z"/>
  <path d="m120.46,154.91h-8.16c0-.06,0-.13,0-.19h8.16v.19Z"/>
  <path d="m25.83,254.56c-4.42,1.2-8.87.91-13.32.4,4.44-.36,8.89.3,13.32-.4Z"/>
  <path d="m11.68,257.63c3.36-.84,6.73.14,10.09,0h-10.09Z"/>
  <path d="m13.39,259.38c2.75.15,5.47.15,8.19-.28-2.71.89-5.42,1.62-8.19.28Z"/>
  <path d="m26.69,235.71l-8.11,1.09c2.59-.99,5.27-1.36,8.11-1.09Z"/>
  <path d="m161.68,123.13h-10.87c0-.07,0-.13-.01-.2h10.88c0,.07,0,.13,0,.2Z"/>
  <path d="m133.5,107.28c-4.86.56-9.76.95-14.69.52,4.86-.91,9.77-.53,14.69-.52Z"/>
  <path d="m118.65,76.85c3.97-.19,7.93-.39,11.9-.58-3.91,1.02-7.9.94-11.9.58Z"/>
  <path d="m122.86,79.53l7.16-.39c-2.38.64-4.79.97-7.16.39Z"/>
  <path d="m118.77,14.37c-3.55,2.17-7.53,3.34-11.57,4.35,3.67-1.89,7.73-2.76,11.57-4.35Z"/>
  <path d="m34.65,257.66c2.1,2.46,4.48,4.63,6.63,7.01-3.14-1.45-5.06-4.08-6.63-7.01Z"/>
  <path d="m68.34,231.31c2.21,1.43,3.8,3.35,4.89,5.63l-.54.41c-1.45-2.01-2.9-4.03-4.35-6.04Z"/>
  <path d="m65.81,264.62c2.06-1.96,4.35-3.72,6.16-5.98-1.11,2.93-3.27,4.82-6.16,5.98Z"/>
  <path d="m203.58,247.66c-4.9.02-8.82-3.85-8.88-8.79-.07-4.77,4.01-8.85,8.86-8.86,4.84-.02,8.84,3.98,8.85,8.85.01,4.91-3.87,8.78-8.83,8.8Zm7.21-8.8c0-4.14-3.12-7.33-7.2-7.32-4.08,0-7.26,3.2-7.28,7.3-.02,4.09,3.17,7.3,7.26,7.31,4.11,0,7.21-3.12,7.22-7.29Z"/>
  <path d="m101.09,256.5c-4.98.06-8.89-3.74-8.94-8.66-.05-4.91,3.79-8.91,8.66-9.01,4.76-.1,8.92,3.93,9.03,8.74.1,4.81-3.88,8.88-8.74,8.94Zm-.22-1.57c4.13.02,7.36-3.12,7.38-7.16.02-4.12-3.08-7.28-7.22-7.34-4.08-.07-7.31,3.1-7.33,7.19-.02,4.21,3,7.29,7.16,7.31Z"/>
  <path d="m165.4,231.92c4.88.09,8.72,4.11,8.63,9.02-.09,4.86-4.15,8.75-9.02,8.65-4.86-.1-8.74-4.15-8.65-9.03.1-4.87,4.12-8.72,9.03-8.64Zm7.11,8.81c-.01-4.07-3.26-7.3-7.31-7.28-4.06.02-7.32,3.28-7.3,7.3.02,4.06,3.27,7.31,7.32,7.32,4.02.01,7.3-3.29,7.29-7.33Z"/>
  <circle cx="100.99" cy="247.66" r="6.21"/>
  <circle cx="165.24" cy="240.81" r="9.26"/>
  <circle cx="203.61" cy="239.29" r="9.26"/>
  <path class="cls-2" d="m203.68,225.45c7,.05,12.71,6.21,12.58,13.53-.13,7.43-5.86,13.31-12.89,13.25-6.82-.06-12.47-6.18-12.4-13.42.07-7.51,5.69-13.41,12.71-13.36Zm-.09,25.19c6.32-.03,11.06-5.12,11.04-11.85-.01-6.81-4.85-11.8-11.39-11.75-5.91.04-10.68,5.28-10.69,11.73-.01,6.74,4.78,11.9,11.04,11.87Z"/>
  <circle cx="132.03" cy="243.09" r="9.26"/>
  <path d="m231.53,247.69c-4.98.06-8.89-3.74-8.94-8.66-.05-4.91,3.79-8.91,8.66-9.01,4.76-.1,8.92,3.93,9.03,8.74.1,4.81-3.88,8.88-8.74,8.94Zm-.22-1.57c4.13.02,7.36-3.12,7.38-7.16.02-4.12-3.08-7.28-7.22-7.34-4.08-.07-7.31,3.1-7.33,7.19-.02,4.21,3,7.29,7.16,7.31Z"/>
  <circle cx="231.43" cy="238.85" r="6.21"/>
</svg>