<?xml version="1.0" encoding="UTF-8"?>
<svg id="Layer_1" data-name="Layer 1" xmlns="http://www.w3.org/2000/svg" viewBox="0 0 138.5 111">
  <defs>
    <style>
      .cls-1 {
        fill: none;
        stroke: #b0c4af;
      }

      .cls-1, .cls-2 {
        stroke-miterlimit: 10;
        stroke-width: 3px;
      }

      .cls-3, .cls-2 {
        fill: #fff;
      }

      .cls-2 {
        stroke: #4f6f63;
      }
    </style>
  </defs>
  <rect class="cls-3" x="80.67" y="93.79" width="9.35" height="17.37"/>
  <line class="cls-2" x1="67.76" y1="76.28" x2="54.45" y2="58.96"/>
  <line class="cls-2" x1="79.19" y1="104.38" x2="79.19" y2="30.32"/>
  <polyline class="cls-2" points="79.19 56.78 96.4 56.78 96.4 30.32"/>
  <line class="cls-2" x1="96.4" y1="56.78" x2="96.4" y2="76.28"/>
  <rect class="cls-3" x="72.4" y="49.05" width="9.35" height="6.22"/>
  <rect class="cls-3" x="30.13" y="10.88" width="9.35" height="17.37"/>
  <polyline class="cls-2" points="40.89 15.86 40.89 70.14 61.13 30.32"/>
  <path class="cls-1" d="m116.71,56.78c0,13.56-5.51,25.83-14.42,34.7-5.35,5.32-11.91,9.41-19.24,11.82-4.81,1.58-9.95,2.43-15.28,2.43-13.91,0-26.46-5.8-35.37-15.12-8.41-8.79-13.58-20.71-13.58-33.83,0-7.14,1.53-13.92,4.27-20.03s6.71-11.56,11.58-16.04c3.29-3.02,7-5.6,11.02-7.64,6.63-3.36,14.13-5.25,22.07-5.25,11.79,0,22.61,4.17,31.06,11.11,10.92,8.98,17.89,22.59,17.89,37.84Z"/>
</svg>